<svg width="5000" height="5000" viewBox="0 0 5000 5000" fill="none" xmlns="http://www.w3.org/2000/svg">
<rect width="5000" height="5000" fill="#1E1E1E"/>
<rect width="5000" height="5000" rx="1200" fill="#061512"/>
<circle cx="2500" cy="1397" r="125" fill="#F5A623"/>
<path fill-rule="evenodd" clip-rule="evenodd" d="M2000.82 1475.75L1088.89 3943.96C1068.22 3988.47 1081.99 4077.47 1302.37 4077.47C1577.85 4077.47 1842.83 3974.46 1953.33 3692.44L2601.78 2034.8C2650.11 1949.12 2767.66 1765.87 2851.26 1718.27C2907.75 1638.26 3011.43 1450.75 2955.75 1297.23C2753.77 682.68 2022.32 877.197 2000.82 1475.75ZM1734.34 3641.44C1709.76 3699.52 1665.93 3742.68 1615.21 3774.28C1524.81 3830.58 1412.53 3850.14 1348.37 3851.95C1366.79 3801.89 1386.45 3748.5 1407.09 3692.44C1698.09 2902.16 2185.59 1581.98 2193.81 1575.26C2202.61 1568.06 2232.8 1435.58 2246.8 1370.24C2338.8 899.199 3071.24 1240.73 2601.78 1652.26C2478.07 1760.71 2415.62 1916.29 2391.79 1972.29L1734.34 3641.44Z" fill="#3B82F6"/>
<path d="M3728.69 4077.47C3909.88 4072.27 3928.84 3986.3 3915.68 3943.96L3481.96 2748.11L3048.24 1552.25C3074.65 1625.06 2959.28 1776.94 2898.29 1843.78L3651.2 3852.95C3388.42 3842.15 3267.73 3669.11 3240.23 3583.93L2677.77 2161.31L2565.78 2468.83C2680.77 2762.69 2937.65 3418.82 3045.24 3692.44C3179.73 4034.47 3502.21 4083.97 3728.69 4077.47Z" fill="#F5A623"/>
<path d="M1407.09 3692.44C1386.45 3748.5 1366.79 3801.89 1348.37 3851.95C1412.53 3850.14 1524.81 3830.58 1615.21 3774.28C1500.58 3838.01 1365.73 3804.79 1407.09 3692.44Z" fill="#3B82F6"/>
<path d="M2955.75 1297.23C3011.43 1450.75 2907.75 1638.26 2851.26 1718.27L2898.29 1843.78C2959.28 1776.94 3074.65 1625.06 3048.24 1552.25L2955.75 1297.23Z" fill="#F5A623"/>
<path fill-rule="evenodd" clip-rule="evenodd" d="M2000.82 1475.75L1088.89 3943.96C1068.22 3988.47 1081.99 4077.47 1302.37 4077.47C1577.85 4077.47 1842.83 3974.46 1953.33 3692.44L2601.78 2034.8C2650.11 1949.12 2767.66 1765.87 2851.26 1718.27C2907.75 1638.26 3011.43 1450.75 2955.75 1297.23C2753.77 682.68 2022.32 877.197 2000.82 1475.75ZM1734.34 3641.44C1709.76 3699.52 1665.93 3742.68 1615.21 3774.28C1524.81 3830.58 1412.53 3850.14 1348.37 3851.95C1366.79 3801.89 1386.45 3748.5 1407.09 3692.44C1698.09 2902.16 2185.59 1581.98 2193.81 1575.26C2202.61 1568.06 2232.8 1435.58 2246.8 1370.24C2338.8 899.199 3071.24 1240.73 2601.78 1652.26C2478.07 1760.71 2415.62 1916.29 2391.79 1972.29L1734.34 3641.44Z" fill="#4A90E2"/>
<path d="M3728.69 4077.47C3909.88 4072.27 3928.84 3986.3 3915.68 3943.96L3481.96 2748.11L3048.24 1552.25C3074.65 1625.06 2959.28 1776.94 2898.29 1843.78L3651.2 3852.95C3388.42 3842.15 3267.73 3669.11 3240.23 3583.93L2677.77 2161.31L2565.78 2468.83C2680.77 2762.69 2937.65 3418.82 3045.24 3692.44C3179.73 4034.47 3502.21 4083.97 3728.69 4077.47Z" fill="#F5A623"/>
<path d="M1407.09 3692.44C1386.45 3748.5 1366.79 3801.89 1348.37 3851.95C1412.53 3850.14 1524.81 3830.58 1615.21 3774.28C1500.58 3838.01 1365.73 3804.79 1407.09 3692.44Z" fill="#4A90E2"/>
<path d="M2955.75 1297.23C3011.43 1450.75 2907.75 1638.26 2851.26 1718.27L2898.29 1843.78C2959.28 1776.94 3074.65 1625.06 3048.24 1552.25L2955.75 1297.23Z" fill="#F5A623"/>
</svg>
