<svg width="512" height="512" viewBox="0 0 512 512" fill="none" xmlns="http://www.w3.org/2000/svg">
<rect width="512" height="512" fill="#1E1E1E"/>
<g clip-path="url(#clip0_13_2)">
<path d="M412 0H100C44.7715 0 0 44.7715 0 100V412C0 467.228 44.7715 512 100 512H412C467.228 512 512 467.228 512 412V100C512 44.7715 467.228 0 412 0Z" fill="url(#paint0_radial_13_2)"/>
<g filter="url(#filter0_f_13_2)">
<path d="M256 320C291.346 320 320 291.346 320 256C320 220.654 291.346 192 256 192C220.654 192 192 220.654 192 256C192 291.346 220.654 320 256 320Z" fill="#FDE047"/>
</g>
<path opacity="0.3" d="M256 310C285.823 310 310 285.823 310 256C310 226.177 285.823 202 256 202C226.177 202 202 226.177 202 256C202 285.823 226.177 310 256 310Z" stroke="#FDE047" stroke-width="1.5"/>
<path opacity="0.4" d="M256 304C282.51 304 304 282.51 304 256C304 229.49 282.51 208 256 208C229.49 208 208 229.49 208 256C208 282.51 229.49 304 256 304Z" stroke="#FDE047" stroke-width="1.5"/>
<g filter="url(#filter1_f_13_2)">
<path d="M89.1228 89.1228L270.142 241.858L422.877 422.877L241.858 270.142L89.1228 89.1228Z" fill="url(#paint1_linear_13_2)"/>
</g>
<path d="M103.265 103.265L258.828 253.172L408.735 408.735L253.172 258.828L103.265 103.265Z" fill="white"/>
<path d="M256 300C280.301 300 300 280.301 300 256C300 231.699 280.301 212 256 212C231.699 212 212 231.699 212 256C212 280.301 231.699 300 256 300Z" fill="white"/>
</g>
<defs>
<filter id="filter0_f_13_2" x="152" y="152" width="208" height="208" filterUnits="userSpaceOnUse" color-interpolation-filters="sRGB">
<feFlood flood-opacity="0" result="BackgroundImageFix"/>
<feBlend mode="normal" in="SourceGraphic" in2="BackgroundImageFix" result="shape"/>
<feGaussianBlur stdDeviation="20" result="effect1_foregroundBlur_13_2"/>
</filter>
<filter id="filter1_f_13_2" x="49.1228" y="49.1228" width="413.754" height="413.754" filterUnits="userSpaceOnUse" color-interpolation-filters="sRGB">
<feFlood flood-opacity="0" result="BackgroundImageFix"/>
<feBlend mode="normal" in="SourceGraphic" in2="BackgroundImageFix" result="shape"/>
<feGaussianBlur stdDeviation="20" result="effect1_foregroundBlur_13_2"/>
</filter>
<radialGradient id="paint0_radial_13_2" cx="0" cy="0" r="1" gradientUnits="userSpaceOnUse" gradientTransform="translate(256 256) scale(384)">
<stop stop-color="#0F172A"/>
<stop offset="1" stop-color="#020617"/>
</radialGradient>
<linearGradient id="paint1_linear_13_2" x1="103.265" y1="74.9807" x2="437.019" y2="408.735" gradientUnits="userSpaceOnUse">
<stop stop-color="#FDE047" stop-opacity="0.1"/>
<stop offset="0.35" stop-color="#FDE047" stop-opacity="0.9"/>
<stop offset="0.48" stop-color="white"/>
<stop offset="0.52" stop-color="white"/>
<stop offset="0.65" stop-color="#FDE047" stop-opacity="0.9"/>
<stop offset="1" stop-color="#FDE047" stop-opacity="0.1"/>
</linearGradient>
<clipPath id="clip0_13_2">
<rect width="512" height="512" fill="white"/>
</clipPath>
</defs>
</svg>
